# xmcd
#
# Track frame offsets:
#	150
#	12789
#	30867
#	47864
#	62869
#	84000
#	106352
#	122961
#	136919
#	154706
#	169026
#	183119
#	200774
#	214022
#	232089
#	252116
#	268103
#	282269
#	299533
#
# Disc length: 4217 seconds
#
# Revision: 1
# Processed by: cddbd v1.5.2PL0 Copyright (c) Steve Scherf et al.
# Submitted via: audiograbber 1.83.01
#
DISCID=0d107713
DTITLE=Various Artist - RC116
DYEAR=2009
DGENRE=Country
TTITLE0=Toby Keith - American Ride
TTITLE1=Sugarland - Joey
TTITLE2=Carrie Underwood - Cowboy Casanova
TTITLE3=Kenny Chesney - I'm Alive
TTITLE4=Brad Paisley - Welcom To The Future
TTITLE5=Taylor Swift - Fifteen
TTITLE6=Eli Young Band - Radio Waves
TTITLE7=Craig Morgan - Bonfire
TTITLE8=Zac Brown Band - Toes
TTITLE9=Trailer Choir - Rockin' The Beer Gut
TTITLE10=Brooks and Dunn f Billy Gibbons - Honky Tonk Stomp
TTITLE11=Love and Theft - Runaway
TTITLE12=Steve Azar - Moo La Moo
TTITLE13=Martina McBride - I Just Call You Mine
TTITLE14=Alan Jackson - I Still Like Bologna
TTITLE15=Whitney Duncan - Skinny Dippin'
TTITLE16=Fast Ryde - That Thing
TTITLE17=Lost Trailers - Country Folks (Livin' Loud)
TTITLE18=Montgomery Gentry - Long Line Of Losers
EXTD=
EXTT0=
EXTT1=
EXTT2=
EXTT3=
EXTT4=
EXTT5=
EXTT6=
EXTT7=
EXTT8=
EXTT9=
EXTT10=
EXTT11=
EXTT12=
EXTT13=
EXTT14=
EXTT15=
EXTT16=
EXTT17=
EXTT18=
PLAYORDER=
